<?xml version="1.0" encoding="iso-8859-1"?>
<!-- Generator: Adobe Illustrator 19.0.0, SVG Export Plug-In . SVG Version: 6.00 Build 0)  -->
<svg version="1.1" id="Layer_1" xmlns="http://www.w3.org/2000/svg" xmlns:xlink="http://www.w3.org/1999/xlink" x="0px" y="0px"
	 viewBox="0 0 490.667 490.667" style="enable-background:new 0 0 490.667 490.667;" xml:space="preserve">
<g>
	<g>
		<path d="M245.333,128C215.936,128,192,151.936,192,181.333s23.936,53.333,53.333,53.333s53.333-23.936,53.333-53.333
			S274.731,128,245.333,128z M245.333,213.333c-17.643,0-32-14.357-32-32s14.357-32,32-32s32,14.357,32,32
			S262.976,213.333,245.333,213.333z"/>
	</g>
</g>
<g>
	<g>
		<path d="M245.333,213.333c-52.928,0-96,43.072-96,96c0,5.888,4.779,10.667,10.667,10.667h170.667
			c5.888,0,10.667-4.779,10.667-10.667C341.333,256.405,298.261,213.333,245.333,213.333z M171.435,298.667
			c5.184-36.139,36.373-64,73.92-64c37.547,0,68.715,27.861,73.899,64H171.435z"/>
	</g>
</g>
<g>
	<g>
		<path d="M117.333,42.667C87.936,42.667,64,66.603,64,96s23.936,53.333,53.333,53.333S170.667,125.397,170.667,96
			S146.731,42.667,117.333,42.667z M117.333,128c-17.643,0-32-14.357-32-32c0-17.643,14.357-32,32-32c17.643,0,32,14.357,32,32
			C149.333,113.643,134.976,128,117.333,128z"/>
	</g>
</g>
<g>
	<g>
		<path d="M53.333,192C23.936,192,0,215.936,0,245.333s23.936,53.333,53.333,53.333s53.333-23.936,53.333-53.333
			S82.731,192,53.333,192z M53.333,277.333c-17.643,0-32-14.357-32-32s14.357-32,32-32s32,14.357,32,32
			S70.976,277.333,53.333,277.333z"/>
	</g>
</g>
<g>
	<g>
		<path d="M117.333,341.333C87.936,341.333,64,365.269,64,394.667S87.936,448,117.333,448s53.333-23.936,53.333-53.333
			S146.731,341.333,117.333,341.333z M117.333,426.667c-17.643,0-32-14.357-32-32c0-17.643,14.357-32,32-32
			c17.643,0,32,14.357,32,32C149.333,412.309,134.976,426.667,117.333,426.667z"/>
	</g>
</g>
<g>
	<g>
		<path d="M373.333,341.333c-29.397,0-53.333,23.936-53.333,53.333S343.936,448,373.333,448s53.333-23.936,53.333-53.333
			S402.731,341.333,373.333,341.333z M373.333,426.667c-17.643,0-32-14.357-32-32c0-17.643,14.357-32,32-32
			c17.643,0,32,14.357,32,32C405.333,412.309,390.976,426.667,373.333,426.667z"/>
	</g>
</g>
<g>
	<g>
		<path d="M437.333,192C407.936,192,384,215.936,384,245.333s23.936,53.333,53.333,53.333s53.333-23.936,53.333-53.333
			S466.731,192,437.333,192z M437.333,277.333c-17.643,0-32-14.357-32-32s14.357-32,32-32c17.643,0,32,14.357,32,32
			S454.976,277.333,437.333,277.333z"/>
	</g>
</g>
<g>
	<g>
		<path d="M373.333,42.667C343.936,42.667,320,66.603,320,96s23.936,53.333,53.333,53.333S426.667,125.397,426.667,96
			S402.731,42.667,373.333,42.667z M373.333,128c-17.643,0-32-14.357-32-32c0-17.643,14.357-32,32-32c17.643,0,32,14.357,32,32
			C405.333,113.643,390.976,128,373.333,128z"/>
	</g>
</g>
<g>
	<g>
		<path d="M178.197,141.803l-21.333-21.333c-4.16-4.16-10.923-4.16-15.083,0c-4.16,4.16-4.16,10.923,0,15.083l21.333,21.333
			c2.091,2.069,4.821,3.115,7.552,3.115c2.731,0,5.461-1.045,7.531-3.115C182.357,152.725,182.357,145.963,178.197,141.803z"/>
	</g>
</g>
<g>
	<g>
		<path d="M138.667,234.667H96c-5.888,0-10.667,4.779-10.667,10.667S90.112,256,96,256h42.667c5.888,0,10.667-4.779,10.667-10.667
			S144.555,234.667,138.667,234.667z"/>
	</g>
</g>
<g>
	<g>
		<path d="M178.197,333.803c-4.16-4.16-10.923-4.16-15.083,0l-21.333,21.333c-4.16,4.16-4.16,10.923,0,15.083
			c2.091,2.069,4.821,3.115,7.552,3.115s5.461-1.045,7.531-3.115l21.333-21.333C182.357,344.725,182.357,337.963,178.197,333.803z"
			/>
	</g>
</g>
<g>
	<g>
		<path d="M348.864,355.136l-21.333-21.333c-4.16-4.16-10.923-4.16-15.083,0c-4.16,4.16-4.16,10.923,0,15.083l21.333,21.333
			c2.091,2.069,4.821,3.115,7.552,3.115c2.731,0,5.461-1.045,7.531-3.115C353.024,366.059,353.024,359.296,348.864,355.136z"/>
	</g>
</g>
<g>
	<g>
		<path d="M394.667,234.667H352c-5.888,0-10.667,4.779-10.667,10.667S346.112,256,352,256h42.667
			c5.888,0,10.667-4.779,10.667-10.667S400.555,234.667,394.667,234.667z"/>
	</g>
</g>
<g>
	<g>
		<path d="M348.864,120.469c-4.16-4.16-10.923-4.16-15.083,0l-21.333,21.333c-4.16,4.16-4.16,10.923,0,15.083
			c2.091,2.069,4.821,3.115,7.552,3.115c2.731,0,5.461-1.045,7.531-3.115l21.333-21.333
			C353.024,131.392,353.024,124.629,348.864,120.469z"/>
	</g>
</g>
<g>
</g>
<g>
</g>
<g>
</g>
<g>
</g>
<g>
</g>
<g>
</g>
<g>
</g>
<g>
</g>
<g>
</g>
<g>
</g>
<g>
</g>
<g>
</g>
<g>
</g>
<g>
</g>
<g>
</g>
</svg>
